<svg version="1.1" xmlns="http://www.w3.org/2000/svg" viewBox="-96.6922303310887 -10.91785507750381 146.98389225067086 19.879990527126502" fill="none" stroke="black" stroke-width="0.6%" vector-effect="non-scaling-stroke">
    <path d="M -0.21071 -9.52042 A 5 0.21075 360 0 1 -2.89067 -9.70711 A 5 0.21075 360 0 1 7.10933 -9.70711 A 5 0.21075 360 0 1 -0.21071 -9.52042 Z" />
    <path d="M -0.21071 0.47069 A 5 0.21075 180 0 0 7.10933 0.284" />
    <path d="M -2.89067 0.284 A 5 0.21075 180 0 0 -0.21071 0.47069" />
    <path d="M 39.86251 -4.11546 A 5 0.21075 360 0 1 49.29166 -4.01767 A 5 0.21075 360 0 1 39.29166 -4.01767 L 39.29166 5.97344 A 5 0.21075 180 0 0 49.29166 5.97344" />
    <path d="M 39.29166 -4.01767 A 5 0.21075 360 0 1 39.86251 -4.11546" />
    <path d="M -88.37219 -2.42641 A 5 0.21075 360 0 1 -85.69223 -2.23972 L -85.69223 7.75139" />
    <path d="M -85.69223 -2.23972 A 5 0.21075 360 0 1 -95.69223 -2.23972 L -95.69223 7.75139 A 5 0.21075 180 0 0 -85.69223 7.75139" />
    <path d="M -95.69223 -2.23972 A 5 0.21075 360 0 1 -88.37219 -2.42641" />
    <path d="M -2.89067 -9.70711 L -2.89067 0.284" />
    <path d="M 7.10933 -9.70711 L 7.10933 0.284" />
    <path d="M 49.29166 -4.01767 L 49.29166 5.97344" />
</svg>