<svg version="1.1" xmlns="http://www.w3.org/2000/svg" viewBox="-96.69227725433142 -10.917396469849933 146.98385501008283 19.879236573431463" fill="none" stroke="black" stroke-width="0.6%" vector-effect="non-scaling-stroke">
    <path d="M -0.21091 -9.52 A 5 0.21072 360 0 1 -2.89088 -9.70667 A 5 0.21072 360 1 1 7.10912 -9.70667 A 5 0.21072 360 0 1 -0.21091 -9.52 Z" />
    <path d="M -0.21091 0.47111 A 5 0.21072 180 0 0 7.10912 0.28444" />
    <path d="M -2.89088 0.28444 A 5 0.21072 180 0 0 -0.21091 0.47111" />
    <path d="M 39.86242 -4.11556 A 5 0.21072 360 0 1 49.29158 -4.01778 A 5 0.21072 360 0 1 39.29158 -4.01778 L 39.29158 5.97334 A 5 0.21072 180 0 0 49.29158 5.97334" />
    <path d="M 39.29158 -4.01778 A 5 0.21072 360 0 1 39.86242 -4.11556" />
    <path d="M -88.37224 -2.42667 A 5 0.21072 360 0 1 -85.69228 -2.24 L -85.69228 7.75111" />
    <path d="M -85.69228 -2.24 A 5 0.21072 360 0 1 -95.69228 -2.24 L -95.69228 7.75111 A 5 0.21072 180 0 0 -85.69228 7.75111" />
    <path d="M -95.69228 -2.24 A 5 0.21072 360 0 1 -88.37224 -2.42667" />
    <path d="M -2.89088 -9.70667 L -2.89088 0.28444" />
    <path d="M 7.10912 -9.70667 L 7.10912 0.28444" />
    <path d="M 49.29158 -4.01778 L 49.29158 5.97334" />
</svg>