<svg version="1.1" xmlns="http://www.w3.org/2000/svg" viewBox="-102.59243878475117 -9.416372839665764 205.185228408074 17.961654897278336" fill="none" stroke="black" stroke-width="0.6%" vector-effect="non-scaling-stroke">
    <path d="M -67.17489 -2.73633 A 5 0.16828 360 0 1 -65.71042 -2.61733 A 5 0.16828 360 0 1 -75.71042 -2.61733 A 5 0.16828 360 0 1 -67.17489 -2.73633 Z" />
    <path d="M -75.71042 7.377 A 5 0.16828 180 1 0 -65.71042 7.377" />
    <path d="M 67.1754 -2.73633 A 5 0.16828 360 0 1 75.71094 -2.61734 A 5 0.16828 360 0 1 65.71094 -2.61734 A 5 0.16828 360 0 1 67.1754 -2.73633 Z" />
    <path d="M 65.71094 7.377 A 5 0.16828 180 0 0 75.71094 7.377" />
    <path d="M 91.76316 -4.16965 A 5 0.16828 360 0 1 101.59279 -4.1261 A 5 0.16828 360 1 1 91.59279 -4.1261 A 5 0.16828 360 0 1 91.76316 -4.16965 Z" />
    <path d="M 91.59279 5.86824 A 5 0.16828 180 0 0 101.59279 5.86824" />
    <path d="M 91.7631 -5.8247 A 5 0.16828 0 0 1 91.59273 -5.86826 A 5 0.16828 0 0 1 101.59273 -5.86826 A 5 0.16828 0 0 1 91.7631 -5.8247 Z" />
    <path d="M 91.59273 4.12608 A 5 0.16828 180 0 0 91.59279 4.12691" />
    <path d="M 67.17524 -7.25802 A 5 0.16828 360 0 1 65.71077 -7.37701 A 5 0.16828 360 0 1 75.71077 -7.37701 A 5 0.16828 360 0 1 67.17524 -7.25802 Z" />
    <path d="M 65.71077 2.61732 A 5 0.16828 180 0 0 65.71094 2.6187" />
    <path d="M 24.58788 -8.08555 A 5 0.16828 360 0 1 20.88197 -8.24809 L 20.88197 1.74624 A 5 0.16828 180 0 0 24.58788 1.90879 A 5 0.16828 180 0 0 30.88197 1.74624" />
    <path d="M 20.88197 -8.24809 A 5 0.16828 360 0 1 30.88197 -8.24809 L 30.88197 1.74624" />
    <path d="M 30.88197 -8.24809 A 5 0.16828 360 0 1 24.58788 -8.08555" />
    <path d="M -24.58774 -8.08554 A 5 0.16828 360 0 1 -30.88184 -8.24809 L -30.88184 1.74624 A 5 0.16828 180 0 0 -24.58774 1.90879 A 5 0.16828 180 0 0 -20.88184 1.74624" />
    <path d="M -30.88184 -8.24809 A 5 0.16828 360 0 1 -20.88184 -8.24809 L -20.88184 1.74624" />
    <path d="M -20.88184 -8.24809 A 5 0.16828 360 0 1 -24.58774 -8.08554" />
    <path d="M -67.17505 -7.25802 A 5 0.16828 360 0 1 -75.71059 -7.37701 L -75.71059 2.61733 A 5 0.16828 180 0 0 -75.71042 2.6187" />
    <path d="M -75.71059 -7.37701 A 5 0.16828 360 0 1 -65.71059 -7.37701 L -65.71059 -2.61871" />
    <path d="M -65.71059 -7.37701 A 5 0.16828 360 0 1 -67.17505 -7.25802" />
    <path d="M -91.76281 -5.8247 A 5 0.16828 360 0 1 -101.59244 -5.86825 L -101.59244 4.12608 A 5 0.16828 180 0 0 -101.59238 4.12692" />
    <path d="M -101.59244 -5.86825 A 5 0.16828 360 0 1 -91.59244 -5.86825 L -91.59244 -4.12692" />
    <path d="M -91.59244 -5.86825 A 5 0.16828 360 0 1 -91.76281 -5.8247" />
    <path d="M -91.76275 -4.16964 A 5 0.16828 360 0 1 -91.59238 -4.12609 L -91.59238 5.86825" />
    <path d="M -91.59238 -4.12609 A 5 0.16828 360 0 1 -101.59238 -4.12609 L -101.59238 5.86825 A 5 0.16828 180 0 0 -91.59238 5.86825" />
    <path d="M -101.59238 -4.12609 A 5 0.16828 360 0 1 -91.76275 -4.16964" />
    <path d="M -75.71042 -2.61733 L -75.71042 7.377" />
    <path d="M -65.71042 -2.61733 L -65.71042 7.377" />
    <path d="M 65.71094 -2.61734 L 65.71094 7.377" />
    <path d="M 75.71094 -2.61734 L 75.71094 7.377" />
    <path d="M 91.59279 -4.1261 L 91.59279 5.86824" />
    <path d="M 101.59279 -4.1261 L 101.59279 5.86824" />
    <path d="M 91.59273 -5.86826 L 91.59273 4.12608" />
    <path d="M 101.59273 -5.86826 L 101.59273 -4.12693" />
    <path d="M 65.71077 -7.37701 L 65.71077 2.61732" />
    <path d="M 75.71077 -7.37701 L 75.71077 -2.61871" />
</svg>