<svg version="1.1" xmlns="http://www.w3.org/2000/svg" viewBox="-86.45126072978081 -7.736822666499266 168.1072266702396 15.272276503534428" fill="none" stroke="black" stroke-width="0.6%" vector-effect="non-scaling-stroke">
    <path d="M -77.41874 -3.94355 A 5 0.27529 360 0 1 -75.45126 -3.72467 A 5 0.27529 360 0 1 -85.45126 -3.72467 A 5 0.27529 360 0 1 -77.41874 -3.94355 Z" />
    <path d="M -85.45126 6.26016 A 5 0.27529 180 1 0 -75.45126 6.26016" />
    <path d="M 55.7318 -4.9299 A 5 0.27529 360 0 1 64.7072 -4.76293 A 5 0.27529 360 1 1 54.7072 -4.76293 A 5 0.27529 360 0 1 55.7318 -4.9299 Z" />
    <path d="M 54.7072 5.2219 A 5 0.27529 180 1 0 64.7072 5.2219" />
    <path d="M 70.88313 -6.54357 A 5 0.27529 360 0 1 80.65596 -6.46153 L 80.65596 3.5233" />
    <path d="M 80.65596 -6.46153 A 5 0.27529 360 0 1 70.65596 -6.46153 L 70.65596 3.5233 A 5 0.27529 180 0 0 80.65596 3.5233" />
    <path d="M 70.65596 -6.46153 A 5 0.27529 360 0 1 70.88313 -6.54357" />
    <path d="M -85.45126 -3.72467 L -85.45126 6.26016" />
    <path d="M -75.45126 -3.72467 L -75.45126 6.26016" />
    <path d="M 54.7072 -4.76293 L 54.7072 5.2219" />
    <path d="M 64.7072 -4.76293 L 64.7072 5.2219" />
</svg>